<?xml version="1.0" standalone="no"?><svg xmlns="http://www.w3.org/2000/svg" viewBox="0 0 1440 320"><path fill="#e0c3fc" fill-opacity="1" d="M0,0L26.7,32C53.3,64,107,128,160,144C213.3,160,267,128,320,112C373.3,96,427,96,480,90.7C533.3,85,587,75,640,69.3C693.3,64,747,64,800,69.3C853.3,75,907,85,960,96C1013.3,107,1067,117,1120,112C1173.3,107,1227,85,1280,96C1333.3,107,1387,149,1413,170.7L1440,192L1440,320L1413.3,320C1386.7,320,1333,320,1280,320C1226.7,320,1173,320,1120,320C1066.7,320,1013,320,960,320C906.7,320,853,320,800,320C746.7,320,693,320,640,320C586.7,320,533,320,480,320C426.7,320,373,320,320,320C266.7,320,213,320,160,320C106.7,320,53,320,27,320L0,320Z"></path></svg>